<svg width="26" height="13" viewBox="0 0 26 13" fill="none" xmlns="http://www.w3.org/2000/svg">
<path d="M8.08594 5.40625V7.14062C8.08594 8.07292 8.0026 8.85938 7.83594 9.5C7.66927 10.1406 7.42969 10.6562 7.11719 11.0469C6.80469 11.4375 6.42708 11.7214 5.98438 11.8984C5.54688 12.0703 5.05208 12.1562 4.5 12.1562C4.0625 12.1562 3.65885 12.1016 3.28906 11.9922C2.91927 11.8828 2.58594 11.7083 2.28906 11.4688C1.9974 11.224 1.7474 10.9062 1.53906 10.5156C1.33073 10.125 1.17188 9.65104 1.0625 9.09375C0.953125 8.53646 0.898438 7.88542 0.898438 7.14062V5.40625C0.898438 4.47396 0.981771 3.69271 1.14844 3.0625C1.32031 2.43229 1.5625 1.92708 1.875 1.54688C2.1875 1.16146 2.5625 0.885417 3 0.71875C3.44271 0.552083 3.9375 0.46875 4.48438 0.46875C4.92708 0.46875 5.33333 0.523438 5.70312 0.632812C6.07812 0.736979 6.41146 0.90625 6.70312 1.14062C6.99479 1.36979 7.24219 1.67708 7.44531 2.0625C7.65365 2.44271 7.8125 2.90885 7.92188 3.46094C8.03125 4.01302 8.08594 4.66146 8.08594 5.40625ZM6.63281 7.375V5.16406C6.63281 4.65365 6.60156 4.20573 6.53906 3.82031C6.48177 3.42969 6.39583 3.09635 6.28125 2.82031C6.16667 2.54427 6.02083 2.32031 5.84375 2.14844C5.67188 1.97656 5.47135 1.85156 5.24219 1.77344C5.01823 1.6901 4.76562 1.64844 4.48438 1.64844C4.14062 1.64844 3.83594 1.71354 3.57031 1.84375C3.30469 1.96875 3.08073 2.16927 2.89844 2.44531C2.72135 2.72135 2.58594 3.08333 2.49219 3.53125C2.39844 3.97917 2.35156 4.52344 2.35156 5.16406V7.375C2.35156 7.88542 2.38021 8.33594 2.4375 8.72656C2.5 9.11719 2.59115 9.45573 2.71094 9.74219C2.83073 10.0234 2.97656 10.2552 3.14844 10.4375C3.32031 10.6198 3.51823 10.7552 3.74219 10.8438C3.97135 10.9271 4.22396 10.9688 4.5 10.9688C4.85417 10.9688 5.16406 10.901 5.42969 10.7656C5.69531 10.6302 5.91667 10.4193 6.09375 10.1328C6.27604 9.84115 6.41146 9.46875 6.5 9.01562C6.58854 8.55729 6.63281 8.01042 6.63281 7.375ZM11.7734 6.58594L10.6172 6.28906L11.1875 0.625H17.0234V1.96094H12.4141L12.0703 5.05469C12.2786 4.9349 12.5417 4.82292 12.8594 4.71875C13.1823 4.61458 13.5521 4.5625 13.9688 4.5625C14.4948 4.5625 14.9661 4.65365 15.3828 4.83594C15.7995 5.01302 16.1536 5.26823 16.4453 5.60156C16.7422 5.9349 16.9688 6.33594 17.125 6.80469C17.2812 7.27344 17.3594 7.79688 17.3594 8.375C17.3594 8.92188 17.2839 9.42448 17.1328 9.88281C16.987 10.3411 16.7656 10.7422 16.4688 11.0859C16.1719 11.4245 15.7969 11.6875 15.3438 11.875C14.8958 12.0625 14.3672 12.1562 13.7578 12.1562C13.2995 12.1562 12.8646 12.0938 12.4531 11.9688C12.0469 11.8385 11.6823 11.6432 11.3594 11.3828C11.0417 11.1172 10.7812 10.7891 10.5781 10.3984C10.3802 10.0026 10.2552 9.53906 10.2031 9.00781H11.5781C11.6406 9.4349 11.7656 9.79427 11.9531 10.0859C12.1406 10.3776 12.3854 10.599 12.6875 10.75C12.9948 10.8958 13.3516 10.9688 13.7578 10.9688C14.1016 10.9688 14.4062 10.9089 14.6719 10.7891C14.9375 10.6693 15.1615 10.4974 15.3438 10.2734C15.526 10.0495 15.6641 9.77865 15.7578 9.46094C15.8568 9.14323 15.9062 8.78646 15.9062 8.39062C15.9062 8.03125 15.8568 7.69792 15.7578 7.39062C15.6589 7.08333 15.5104 6.8151 15.3125 6.58594C15.1198 6.35677 14.8828 6.17969 14.6016 6.05469C14.3203 5.92448 13.9974 5.85938 13.6328 5.85938C13.1484 5.85938 12.7812 5.92448 12.5312 6.05469C12.2865 6.1849 12.0339 6.36198 11.7734 6.58594ZM20.3828 10.7891H20.5312C21.3646 10.7891 22.0417 10.6719 22.5625 10.4375C23.0833 10.2031 23.4844 9.88802 23.7656 9.49219C24.0469 9.09635 24.2396 8.65104 24.3438 8.15625C24.4479 7.65625 24.5 7.14323 24.5 6.61719V4.875C24.5 4.35938 24.4401 3.90104 24.3203 3.5C24.2057 3.09896 24.0443 2.76302 23.8359 2.49219C23.6328 2.22135 23.401 2.01562 23.1406 1.875C22.8802 1.73438 22.6042 1.66406 22.3125 1.66406C21.9792 1.66406 21.6797 1.73177 21.4141 1.86719C21.1536 1.9974 20.9323 2.18229 20.75 2.42188C20.5729 2.66146 20.4375 2.94271 20.3438 3.26562C20.25 3.58854 20.2031 3.9401 20.2031 4.32031C20.2031 4.65885 20.2448 4.98698 20.3281 5.30469C20.4115 5.6224 20.5391 5.90885 20.7109 6.16406C20.8828 6.41927 21.0964 6.6224 21.3516 6.77344C21.612 6.91927 21.9167 6.99219 22.2656 6.99219C22.5885 6.99219 22.8906 6.92969 23.1719 6.80469C23.4583 6.67448 23.7109 6.5 23.9297 6.28125C24.1536 6.05729 24.3307 5.80469 24.4609 5.52344C24.5964 5.24219 24.6745 4.94792 24.6953 4.64062H25.3828C25.3828 5.07292 25.2969 5.5 25.125 5.92188C24.9583 6.33854 24.724 6.71875 24.4219 7.0625C24.1198 7.40625 23.7656 7.68229 23.3594 7.89062C22.9531 8.09375 22.5104 8.19531 22.0312 8.19531C21.4688 8.19531 20.9818 8.08594 20.5703 7.86719C20.1589 7.64844 19.8203 7.35677 19.5547 6.99219C19.2943 6.6276 19.099 6.22135 18.9688 5.77344C18.8438 5.32031 18.7812 4.86198 18.7812 4.39844C18.7812 3.85677 18.8568 3.34896 19.0078 2.875C19.1589 2.40104 19.3828 1.98438 19.6797 1.625C19.9766 1.26042 20.3438 0.976562 20.7812 0.773438C21.224 0.570312 21.7344 0.46875 22.3125 0.46875C22.9635 0.46875 23.5182 0.598958 23.9766 0.859375C24.4349 1.11979 24.8073 1.46875 25.0938 1.90625C25.3854 2.34375 25.599 2.83594 25.7344 3.38281C25.8698 3.92969 25.9375 4.49219 25.9375 5.07031V5.59375C25.9375 6.18229 25.8984 6.78125 25.8203 7.39062C25.7474 7.99479 25.6042 8.57292 25.3906 9.125C25.1823 9.67708 24.8776 10.1719 24.4766 10.6094C24.0755 11.0417 23.5521 11.3854 22.9062 11.6406C22.2656 11.8906 21.474 12.0156 20.5312 12.0156H20.3828V10.7891Z" fill="#38972E"/>
</svg>
